<svg xmlns="http://www.w3.org/2000/svg" viewBox="0 0 56.164 56.152"><defs><style>.a{fill:#375147;}</style></defs><path class="a" d="M28.013,45.5a14.4,14.4,0,1,0,14.4,14.4A14.374,14.374,0,0,0,28.013,45.5Zm0,23.756a9.36,9.36,0,1,1,9.36-9.36,9.377,9.377,0,0,1-9.36,9.36ZM46.357,44.915A3.358,3.358,0,1,1,43,41.557,3.35,3.35,0,0,1,46.357,44.915Zm9.535,3.408c-.213-4.5-1.24-8.483-4.536-11.765s-7.267-4.31-11.765-4.536c-4.636-.263-18.531-.263-23.167,0-4.486.213-8.47,1.24-11.765,4.523S.348,43.813.122,48.311c-.263,4.636-.263,18.531,0,23.167.213,4.5,1.24,8.483,4.536,11.765s7.267,4.31,11.765,4.536c4.636.263,18.531.263,23.167,0,4.5-.213,8.483-1.24,11.765-4.536s4.31-7.267,4.536-11.765c.263-4.636.263-18.519,0-23.155ZM49.9,76.452a9.476,9.476,0,0,1-5.338,5.338c-3.7,1.466-12.467,1.128-16.552,1.128s-12.868.326-16.552-1.128a9.476,9.476,0,0,1-5.338-5.338C4.658,72.756,5,63.985,5,59.9S4.671,47.033,6.124,43.349a9.476,9.476,0,0,1,5.338-5.338c3.7-1.466,12.467-1.128,16.552-1.128s12.868-.326,16.552,1.128A9.476,9.476,0,0,1,49.9,43.349c1.466,3.7,1.128,12.467,1.128,16.552S51.369,72.769,49.9,76.452Z" transform="translate(0.075 -31.825)"/></svg>